<svg width="185" height="34" viewBox="0 0 185 34" fill="none" xmlns="http://www.w3.org/2000/svg">
<path d="M0 0H59L46 33H0V0Z" fill="#FFDC22"/>
<path d="M30.3652 17.4639C30.9902 17.8936 31.498 18.4355 31.8887 19.0898C32.2793 19.7344 32.4746 20.4961 32.4746 21.375C32.4746 22.4297 32.25 23.3232 31.8008 24.0557C31.3613 24.7783 30.7266 25.3496 29.8965 25.7695C29.0176 26.2188 28.002 26.5361 26.8496 26.7217C25.707 26.9072 24.3594 27 22.8066 27H12.0107V25.8574C12.3135 25.8281 12.6943 25.7842 13.1533 25.7256C13.6123 25.667 13.9346 25.5986 14.1201 25.5205C14.4814 25.374 14.7256 25.1836 14.8525 24.9492C14.9893 24.7051 15.0576 24.3926 15.0576 24.0117V9.36328C15.0576 9.01172 15.0039 8.71875 14.8965 8.48438C14.7891 8.25 14.5303 8.04492 14.1201 7.86914C13.8174 7.74219 13.4658 7.63965 13.0654 7.56152C12.665 7.47363 12.3135 7.40527 12.0107 7.35645V6.21387H23.3047C26.1465 6.21387 28.1973 6.60449 29.457 7.38574C30.7168 8.16699 31.3467 9.31934 31.3467 10.8428C31.3467 11.5459 31.2051 12.166 30.9219 12.7031C30.6387 13.2305 30.2334 13.6895 29.7061 14.0801C29.2275 14.4414 28.6562 14.7539 27.9922 15.0176C27.3281 15.2812 26.6152 15.501 25.8535 15.6768V15.9551C26.6152 16.0332 27.4062 16.2041 28.2266 16.4678C29.0469 16.7217 29.7598 17.0537 30.3652 17.4639ZM25.6484 11.209C25.6484 10.0566 25.3213 9.1582 24.667 8.51367C24.0225 7.86914 23.0508 7.54688 21.752 7.54688C21.5664 7.54688 21.3223 7.55664 21.0195 7.57617C20.7266 7.58594 20.4727 7.5957 20.2578 7.60547V15.3105H21.0195C22.6016 15.3105 23.7686 14.9443 24.5205 14.2119C25.2725 13.4697 25.6484 12.4688 25.6484 11.209ZM26.6738 21.1846C26.6738 19.7393 26.2441 18.6309 25.3848 17.8594C24.5254 17.0879 23.29 16.7021 21.6787 16.7021C21.4932 16.7021 21.2441 16.7119 20.9316 16.7314C20.6289 16.7412 20.4043 16.751 20.2578 16.7607V24.3633C20.3457 24.7246 20.6191 25.0322 21.0781 25.2861C21.5371 25.5303 22.0938 25.6523 22.748 25.6523C23.9102 25.6523 24.8525 25.2617 25.5752 24.4805C26.3076 23.6992 26.6738 22.6006 26.6738 21.1846ZM58.6807 7.35645C58.3975 7.38574 57.9873 7.4541 57.4502 7.56152C56.9229 7.65918 56.4785 7.83496 56.1172 8.08887C55.7461 8.33301 55.4824 8.77246 55.3262 9.40723C55.1797 10.042 55.1064 10.9941 55.1064 12.2637V19.998C55.1064 22.2734 54.335 24.1045 52.792 25.4912C51.249 26.8779 49.208 27.5713 46.6689 27.5713C43.71 27.5713 41.4199 26.9023 39.7988 25.5645C38.1777 24.2266 37.3672 22.3613 37.3672 19.9688V9.33398C37.3672 8.99219 37.2988 8.69922 37.1621 8.45508C37.0352 8.21094 36.7861 7.99121 36.415 7.7959C36.1611 7.66895 35.8486 7.56641 35.4775 7.48828C35.1064 7.41016 34.8037 7.35645 34.5693 7.32715V6.21387H45.4678V7.32715C45.1553 7.34668 44.8379 7.38574 44.5156 7.44434C44.1934 7.49316 43.8662 7.57129 43.5342 7.67871C43.1631 7.7959 42.9141 7.99121 42.7871 8.26465C42.6602 8.53809 42.5967 8.8457 42.5967 9.1875V19.6758C42.5967 21.7363 43.0508 23.2354 43.959 24.1729C44.8672 25.1104 46.1855 25.5791 47.9141 25.5791C49.6133 25.5791 50.9463 25.0615 51.9131 24.0264C52.8799 22.9912 53.3633 21.4678 53.3633 19.4561V12.4102C53.3633 11.1602 53.2754 10.2275 53.0996 9.6123C52.9336 8.9873 52.6748 8.53809 52.3232 8.26465C52.0693 8.0498 51.625 7.85449 50.9902 7.67871C50.3652 7.50293 49.9258 7.39551 49.6719 7.35645V6.21387H58.6807V7.35645ZM71.2051 27H59.6768V25.8574C59.9404 25.8379 60.3262 25.8086 60.834 25.7695C61.3516 25.7305 61.708 25.6719 61.9033 25.5938C62.2646 25.4473 62.5088 25.2568 62.6357 25.0225C62.7725 24.7783 62.8408 24.4707 62.8408 24.0996V9.36328C62.8408 9.03125 62.7773 8.73828 62.6504 8.48438C62.5234 8.23047 62.2744 8.02539 61.9033 7.86914C61.6689 7.77148 61.3223 7.67383 60.8633 7.57617C60.4043 7.46875 60.0088 7.39551 59.6768 7.35645V6.21387H71.2051V7.35645C70.9121 7.38574 70.5459 7.42969 70.1064 7.48828C69.667 7.53711 69.2959 7.61035 68.9932 7.70801C68.6123 7.83496 68.3584 8.03516 68.2314 8.30859C68.1045 8.57227 68.041 8.875 68.041 9.2168V23.9385C68.041 24.29 68.1045 24.5928 68.2314 24.8467C68.3682 25.0908 68.6221 25.291 68.9932 25.4473C69.1982 25.5352 69.5352 25.623 70.0039 25.7109C70.4824 25.7891 70.8828 25.8379 71.2051 25.8574V27ZM92.709 20.335L92.2988 27H73.1533V25.8574C73.4951 25.8281 73.8955 25.7842 74.3545 25.7256C74.8135 25.6572 75.1162 25.5938 75.2627 25.5352C75.6143 25.3984 75.8584 25.208 75.9951 24.9639C76.1318 24.7197 76.2002 24.4072 76.2002 24.0264V9.36328C76.2002 9.01172 76.1465 8.72363 76.0391 8.49902C75.9316 8.26465 75.6729 8.05469 75.2627 7.86914C74.96 7.73242 74.5938 7.625 74.1641 7.54688C73.7441 7.45898 73.4072 7.39551 73.1533 7.35645V6.21387H84.5645V7.35645C84.252 7.38574 83.8809 7.42969 83.4512 7.48828C83.0312 7.53711 82.665 7.61035 82.3525 7.70801C81.9717 7.83496 81.7178 8.03516 81.5908 8.30859C81.4639 8.57227 81.4004 8.875 81.4004 9.2168V22.8838C81.4004 23.5283 81.4443 24.0361 81.5322 24.4072C81.6201 24.7783 81.791 25.0518 82.0449 25.2275C82.2988 25.4131 82.6504 25.5352 83.0996 25.5938C83.5586 25.6426 84.1885 25.667 84.9893 25.667C85.7705 25.667 86.5273 25.623 87.2598 25.5352C88.002 25.4375 88.5342 25.2324 88.8564 24.9199C89.3545 24.4219 89.8623 23.7236 90.3799 22.8252C90.9072 21.917 91.3271 21.0869 91.6396 20.335H92.709ZM112.44 8.35254C113.71 9.18262 114.735 10.291 115.517 11.6777C116.298 13.0547 116.688 14.7441 116.688 16.7461C116.688 18.5039 116.337 20.0371 115.634 21.3457C114.94 22.6445 114.018 23.709 112.865 24.5391C111.693 25.3691 110.36 25.9893 108.866 26.3994C107.382 26.7998 105.824 27 104.193 27H93.7197V25.8574C94.0322 25.8477 94.4229 25.8184 94.8916 25.7695C95.3604 25.7207 95.6729 25.6621 95.8291 25.5938C96.1807 25.4473 96.4248 25.252 96.5615 25.0078C96.6982 24.7539 96.7666 24.4512 96.7666 24.0996V9.36328C96.7666 9.03125 96.7031 8.7334 96.5762 8.46973C96.4492 8.19629 96.2002 7.97656 95.8291 7.81055C95.458 7.64453 95.0625 7.53223 94.6426 7.47363C94.2324 7.41504 93.915 7.37598 93.6904 7.35645V6.21387H104.75C105.932 6.21387 107.196 6.36523 108.544 6.66797C109.892 6.9707 111.19 7.53223 112.44 8.35254ZM109.452 23.25C109.931 22.4688 110.277 21.541 110.492 20.4668C110.717 19.3828 110.829 18.1377 110.829 16.7314C110.829 15.3545 110.683 14.0996 110.39 12.9668C110.097 11.834 109.667 10.8672 109.101 10.0664C108.534 9.26562 107.826 8.64551 106.977 8.20605C106.137 7.7666 105.18 7.54688 104.105 7.54688C103.764 7.54688 103.373 7.55664 102.934 7.57617C102.504 7.58594 102.182 7.5957 101.967 7.60547V23.3818C101.967 23.7334 102.011 24.0459 102.099 24.3193C102.196 24.583 102.357 24.8174 102.582 25.0225C102.807 25.2275 103.08 25.3887 103.402 25.5059C103.734 25.6133 104.164 25.667 104.691 25.667C105.795 25.667 106.742 25.4619 107.533 25.0518C108.324 24.6416 108.964 24.041 109.452 23.25ZM130.18 27H118.651V25.8574C118.915 25.8379 119.301 25.8086 119.809 25.7695C120.326 25.7305 120.683 25.6719 120.878 25.5938C121.239 25.4473 121.483 25.2568 121.61 25.0225C121.747 24.7783 121.815 24.4707 121.815 24.0996V9.36328C121.815 9.03125 121.752 8.73828 121.625 8.48438C121.498 8.23047 121.249 8.02539 120.878 7.86914C120.644 7.77148 120.297 7.67383 119.838 7.57617C119.379 7.46875 118.983 7.39551 118.651 7.35645V6.21387H130.18V7.35645C129.887 7.38574 129.521 7.42969 129.081 7.48828C128.642 7.53711 128.271 7.61035 127.968 7.70801C127.587 7.83496 127.333 8.03516 127.206 8.30859C127.079 8.57227 127.016 8.875 127.016 9.2168V23.9385C127.016 24.29 127.079 24.5928 127.206 24.8467C127.343 25.0908 127.597 25.291 127.968 25.4473C128.173 25.5352 128.51 25.623 128.979 25.7109C129.457 25.7891 129.857 25.8379 130.18 25.8574V27ZM143.026 27.5566C141.503 27.5566 140.077 27.3125 138.749 26.8242C137.421 26.3262 136.264 25.6084 135.277 24.6709C134.311 23.7529 133.549 22.6201 132.992 21.2725C132.436 19.915 132.157 18.4258 132.157 16.8047C132.157 15.1934 132.436 13.7041 132.992 12.3369C133.559 10.96 134.35 9.76855 135.365 8.7627C136.361 7.77637 137.558 7.01465 138.954 6.47754C140.351 5.93066 141.845 5.65723 143.437 5.65723C144.589 5.65723 145.639 5.79883 146.586 6.08203C147.533 6.35547 148.334 6.66797 148.988 7.01953L149.896 6.21387H151.171L151.303 13.8018H150.014C149.281 11.4873 148.402 9.78809 147.377 8.7041C146.352 7.62012 145.102 7.07812 143.627 7.07812C141.791 7.07812 140.395 7.88867 139.438 9.50977C138.48 11.1211 138.002 13.3867 138.002 16.3066C138.002 17.957 138.163 19.3682 138.485 20.54C138.817 21.7021 139.247 22.6396 139.774 23.3525C140.341 24.0947 141.01 24.6416 141.781 24.9932C142.553 25.335 143.407 25.5059 144.345 25.5059C145.712 25.5059 146.928 25.1348 147.992 24.3926C149.066 23.6504 150.043 22.5273 150.922 21.0234L152.182 21.7852C151.762 22.6445 151.283 23.416 150.746 24.0996C150.209 24.7734 149.589 25.3545 148.886 25.8428C148.114 26.3799 147.26 26.7998 146.322 27.1025C145.395 27.4053 144.296 27.5566 143.026 27.5566ZM172.03 11.5166H170.917C170.634 10.7256 170.146 9.9248 169.452 9.11426C168.759 8.30371 168.07 7.8252 167.387 7.67871C167.094 7.61035 166.684 7.57129 166.156 7.56152C165.639 7.54199 165.209 7.53223 164.867 7.53223H161.85V15.5596H163.988C164.525 15.5596 165.014 15.4961 165.453 15.3691C165.893 15.2422 166.293 14.998 166.654 14.6367C166.879 14.4121 167.104 14.0166 167.328 13.4502C167.562 12.8838 167.714 12.3906 167.782 11.9707H168.896V20.6426H167.782C167.724 20.2324 167.572 19.7197 167.328 19.1045C167.094 18.4795 166.869 18.0498 166.654 17.8154C166.332 17.4639 165.951 17.2246 165.512 17.0977C165.072 16.9609 164.564 16.8926 163.988 16.8926H161.85V22.8838C161.85 23.5088 161.894 24.0068 161.981 24.3779C162.079 24.7393 162.255 25.0176 162.509 25.2129C162.753 25.3984 163.085 25.5205 163.505 25.5791C163.935 25.6377 164.516 25.667 165.248 25.667C165.59 25.667 166 25.6621 166.479 25.6523C166.957 25.6426 167.377 25.6133 167.738 25.5645C168.148 25.5156 168.529 25.4424 168.881 25.3447C169.242 25.2471 169.511 25.1055 169.687 24.9199C170.155 24.4414 170.683 23.7139 171.269 22.7373C171.854 21.751 172.24 21.0137 172.426 20.5254H173.495L173.1 27H153.603V25.8574C153.876 25.8379 154.247 25.7988 154.716 25.7402C155.185 25.6816 155.517 25.6133 155.712 25.5352C156.083 25.3789 156.332 25.1836 156.459 24.9492C156.586 24.7051 156.649 24.3975 156.649 24.0264V9.36328C156.649 9.01172 156.596 8.72363 156.488 8.49902C156.381 8.26465 156.122 8.05469 155.712 7.86914C155.458 7.75195 155.102 7.64453 154.643 7.54688C154.184 7.44922 153.837 7.38574 153.603 7.35645V6.21387H172.03V11.5166Z" fill="#232735"/>
<path d="M182.064 24.5684C182.064 25.3398 181.776 26.0088 181.2 26.5752C180.634 27.1416 179.96 27.4248 179.179 27.4248C178.388 27.4248 177.704 27.1465 177.128 26.5898C176.562 26.0234 176.278 25.3496 176.278 24.5684C176.278 23.7871 176.562 23.1133 177.128 22.5469C177.704 21.9707 178.388 21.6826 179.179 21.6826C179.96 21.6826 180.634 21.9707 181.2 22.5469C181.776 23.123 182.064 23.7969 182.064 24.5684Z" fill="#FFDC22"/>
</svg>
